<?xml version="1.0" encoding="UTF-8" standalone="no"?>
<svg
   xmlns:dc="http://purl.org/dc/elements/1.1/"
   xmlns:cc="http://creativecommons.org/ns#"
   xmlns:rdf="http://www.w3.org/1999/02/22-rdf-syntax-ns#"
   xmlns:svg="http://www.w3.org/2000/svg"
   xmlns="http://www.w3.org/2000/svg"
   xmlns:sodipodi="http://sodipodi.sourceforge.net/DTD/sodipodi-0.dtd"
   xmlns:inkscape="http://www.inkscape.org/namespaces/inkscape"
   version="1.1"
   x="0px"
   y="0px"
   viewBox="0 0 70 84"
   id="svg2"
   inkscape:version="0.91 r13725"
   sodipodi:docname="noun_771675_cc.svg"
   width="70"
   height="84">
  <metadata
     id="metadata16">
    <rdf:RDF>
      <cc:Work
         rdf:about="">
        <dc:format>image/svg+xml</dc:format>
        <dc:type
           rdf:resource="http://purl.org/dc/dcmitype/StillImage" />
        <dc:title></dc:title>
      </cc:Work>
    </rdf:RDF>
  </metadata>
  <defs
     id="defs14" />
  <sodipodi:namedview
     pagecolor="#ffffff"
     bordercolor="#666666"
     borderopacity="1"
     objecttolerance="10"
     gridtolerance="10"
     guidetolerance="10"
     inkscape:pageopacity="0"
     inkscape:pageshadow="2"
     inkscape:window-width="1366"
     inkscape:window-height="705"
     id="namedview12"
     showgrid="false"
     inkscape:zoom="1.888"
     inkscape:cx="-96.754815"
     inkscape:cy="62.5"
     inkscape:window-x="-8"
     inkscape:window-y="-8"
     inkscape:window-maximized="1"
     inkscape:current-layer="svg2" />
  <g
     transform="translate(-15,-960.36219)"
     id="g4"
     style="opacity:1;fill:#415f9f;fill-opacity:0.94117647">
    <path
       style="color:#000000;text-indent:0;text-transform:none;direction:ltr;block-progression:tb;baseline-shift:baseline;display:inline;overflow:visible;visibility:visible;fill:#415f9f;fill-opacity:0.94117647;stroke:none;marker:none;enable-background:accumulate"
       d="m 50,960.36217 c -12.690108,0 -23,10.30989 -23,23 l 0,11.00003 -5,0 c -3.826109,0 -7,3.1739 -7,7 l 0,36 c 0,3.8261 3.173891,7 7,7 l 56,0 c 3.82611,0 7,-3.1739 7,-7 l 0,-36 c 0,-3.8261 -3.17389,-7 -7,-7 l -5,0 0,-11.00003 c 0,-12.69011 -10.30989,-23 -23,-23 z m 0,6 c 9.46989,0 17,7.53011 17,17 l 0,11.00003 -34,0 0,-11.00003 c 0,-9.46989 7.530108,-17 17,-17 z m -28,34.00003 56,0 c 0.60589,0 1,0.3941 1,1 l 0,36 c 0,0.6059 -0.39411,1 -1,1 l -56,0 c -0.605893,0 -1,-0.3941 -1,-1 l 0,-36 c 0,-0.6059 0.394107,-1 1,-1 z m 28,6 c -4.935029,0 -9,4.065 -9,9 0,2.0459 0.837303,3.8249 2,5.3437 l 0,4.6563 c 0,3.8261 3.173892,7 7,7 3.82611,0 7,-3.1739 7,-7 l 0,-4.6563 c 1.1627,-1.5188 2,-3.2978 2,-5.3437 0,-4.935 -4.06497,-9 -9,-9 z m 0,6 c 1.69239,0 3,1.3076 3,3 0,0.9054 -0.38077,1.6641 -1,2.2187 a 3.0003,3.0003 0 0 0 -1,2.25 l 0,5.5313 c 0,0.6059 -0.394108,1 -1,1 -0.605892,0 -1,-0.3941 -1,-1 l 0,-5.5313 a 3.0003,3.0003 0 0 0 -1,-2.25 c -0.619231,-0.5546 -1,-1.3133 -1,-2.2187 0,-1.6924 1.307609,-3 3,-3 z"
       visibility="visible"
       display="inline"
       overflow="visible"
       id="path6"
       inkscape:connector-curvature="0" />
  </g>
</svg>
