<?xml version="1.0" encoding="UTF-8" standalone="no"?>
<svg
   xmlns:dc="http://purl.org/dc/elements/1.1/"
   xmlns:cc="http://creativecommons.org/ns#"
   xmlns:rdf="http://www.w3.org/1999/02/22-rdf-syntax-ns#"
   xmlns:svg="http://www.w3.org/2000/svg"
   xmlns="http://www.w3.org/2000/svg"
   xmlns:sodipodi="http://sodipodi.sourceforge.net/DTD/sodipodi-0.dtd"
   xmlns:inkscape="http://www.inkscape.org/namespaces/inkscape"
   version="1.1"
   x="0px"
   y="0px"
   viewBox="0 0 100 125"
   enable-background="new 0 0 100 100"
   xml:space="preserve"
   id="svg2"
   inkscape:version="0.91 r13725"
   sodipodi:docname="noun_883839_cc.svg"><metadata
     id="metadata44"><rdf:RDF><cc:Work
         rdf:about=""><dc:format>image/svg+xml</dc:format><dc:type
           rdf:resource="http://purl.org/dc/dcmitype/StillImage" /></cc:Work></rdf:RDF></metadata><defs
     id="defs42" /><sodipodi:namedview
     pagecolor="#ffffff"
     bordercolor="#666666"
     borderopacity="1"
     objecttolerance="10"
     gridtolerance="10"
     guidetolerance="10"
     inkscape:pageopacity="0"
     inkscape:pageshadow="2"
     inkscape:window-width="1366"
     inkscape:window-height="705"
     id="namedview40"
     showgrid="false"
     inkscape:zoom="1.888"
     inkscape:cx="-20.444915"
     inkscape:cy="62.5"
     inkscape:window-x="-8"
     inkscape:window-y="-8"
     inkscape:window-maximized="1"
     inkscape:current-layer="svg2" /><g
     id="g4"><g
       id="g6"><path
         d="M92.985,77.558H7.015C5.903,77.558,5,76.654,5,75.541V11.017C5,9.903,5.903,9,7.015,9h85.97C94.097,9,95,9.903,95,11.017    v64.524C95,76.654,94.097,77.558,92.985,77.558z M9.03,73.525h81.94V13.033H9.03V73.525z"
         id="path8" /></g><g
       id="g10"><path
         d="M59.403,91H40.597c-1.112,0-2.015-0.903-2.015-2.017V75.541c0-1.113,0.903-2.016,2.015-2.016h18.806    c1.112,0,2.015,0.902,2.015,2.016v13.442C61.418,90.097,60.515,91,59.403,91z M42.612,86.967h14.776v-9.409H42.612V86.967z"
         id="path12" /></g><g
       id="g14"><rect
         x="16.418"
         y="86.967"
         width="67.164"
         height="4.033"
         id="rect16" /></g><g
       id="g18"><g
         id="g20"><circle
           cx="50.001"
           cy="51.989"
           r="1.332"
           id="circle22" /></g><g
         id="g24"><path
           d="M39.266,41.948c-0.736,0-1.335,0.597-1.335,1.331c0,0.734,0.599,1.332,1.335,1.332c0.732,0,1.328-0.598,1.328-1.332     C40.593,42.545,39.998,41.948,39.266,41.948z"
           id="path26" /></g><g
         id="g28"><path
           d="M60.741,33.212c-0.737,0-1.338,0.597-1.338,1.332c0,0.733,0.601,1.331,1.338,1.331c0.732,0,1.328-0.598,1.328-1.331     C62.069,33.81,61.473,33.212,60.741,33.212z"
           id="path30" /></g><g
         id="g32"><path
           d="M83.582,18.41H16.418c-1.112,0-2.015,0.903-2.015,2.017v45.705c0,1.113,0.903,2.017,2.015,2.017h67.164     c1.112,0,2.015-0.903,2.015-2.017V20.426C85.597,19.313,84.694,18.41,83.582,18.41z M41.28,48.242V59.41h-4.03V48.242     c-1.961-0.798-3.35-2.719-3.35-4.964c0-2.244,1.389-4.165,3.35-4.963V27.147h4.03v11.168c1.958,0.799,3.343,2.72,3.343,4.963     C44.623,45.522,43.238,47.442,41.28,48.242z M50.001,57.354c-2.957,0-5.363-2.407-5.363-5.363c0-2.245,1.388-4.167,3.348-4.966     V27.147h4.03v19.877c1.958,0.799,3.347,2.721,3.347,4.966C55.363,54.946,52.958,57.354,50.001,57.354z M62.756,39.507V59.41     h-4.03V39.508c-1.962-0.8-3.353-2.72-3.353-4.964c0-2.245,1.391-4.166,3.353-4.965v-2.432h4.03v2.433     c1.958,0.799,3.343,2.72,3.343,4.964C66.099,36.787,64.713,38.708,62.756,39.507z"
           id="path34" /></g></g></g></svg>