<?xml version="1.0" encoding="UTF-8" standalone="no"?>
<svg
   xmlns:dc="http://purl.org/dc/elements/1.1/"
   xmlns:cc="http://creativecommons.org/ns#"
   xmlns:rdf="http://www.w3.org/1999/02/22-rdf-syntax-ns#"
   xmlns:svg="http://www.w3.org/2000/svg"
   xmlns="http://www.w3.org/2000/svg"
   xmlns:sodipodi="http://sodipodi.sourceforge.net/DTD/sodipodi-0.dtd"
   xmlns:inkscape="http://www.inkscape.org/namespaces/inkscape"
   version="1.1"
   x="0px"
   y="0px"
   viewBox="0 0 100 125"
   enable-background="new 0 0 100 100"
   xml:space="preserve"
   id="svg2"
   inkscape:version="0.91 r13725"
   sodipodi:docname="noun_916022_cc.svg"><metadata
     id="metadata16"><rdf:RDF><cc:Work
         rdf:about=""><dc:format>image/svg+xml</dc:format><dc:type
           rdf:resource="http://purl.org/dc/dcmitype/StillImage" /></cc:Work></rdf:RDF></metadata><defs
     id="defs14" /><sodipodi:namedview
     pagecolor="#ffffff"
     bordercolor="#666666"
     borderopacity="1"
     objecttolerance="10"
     gridtolerance="10"
     guidetolerance="10"
     inkscape:pageopacity="0"
     inkscape:pageshadow="2"
     inkscape:window-width="1366"
     inkscape:window-height="705"
     id="namedview12"
     showgrid="false"
     inkscape:zoom="1.888"
     inkscape:cx="-20.444915"
     inkscape:cy="62.5"
     inkscape:window-x="-8"
     inkscape:window-y="-8"
     inkscape:window-maximized="1"
     inkscape:current-layer="svg2" /><path
     d="M50,36.971c-14.08,0-25.494,11.421-25.494,25.515C24.506,76.575,35.92,88,50,88c14.082,0,25.494-11.425,25.494-25.515  C75.494,48.392,64.082,36.971,50,36.971z M50,76.693c-7.842,0-14.197-6.36-14.197-14.208c0-7.849,6.355-14.209,14.197-14.209  s14.197,6.36,14.197,14.209C64.197,70.333,57.842,76.693,50,76.693z"
     id="path4" /><path
     d="M87.191,20.444H48.148c0-4.665-3.578-8.444-7.992-8.444H27.058c-4.417,0-7.995,3.779-7.995,8.444h-6.257  C8.496,20.444,5,23.936,5,28.24v37.241c0,4.305,3.496,7.796,7.806,7.796h11.033c-1.376-3.329-2.146-6.971-2.146-10.792  c0-15.621,12.699-28.329,28.307-28.329s28.307,12.708,28.307,28.329c0,3.821-0.77,7.463-2.146,10.792h11.03  c4.313,0,7.809-3.491,7.809-7.796V28.24C95,23.936,91.504,20.444,87.191,20.444z"
     id="path6" /></svg>