<?xml version="1.0" encoding="UTF-8" standalone="no"?>
<!-- Generator: Adobe Illustrator 19.1.0, SVG Export Plug-In . SVG Version: 6.00 Build 0)  -->

<svg
   xmlns:dc="http://purl.org/dc/elements/1.1/"
   xmlns:cc="http://creativecommons.org/ns#"
   xmlns:rdf="http://www.w3.org/1999/02/22-rdf-syntax-ns#"
   xmlns:svg="http://www.w3.org/2000/svg"
   xmlns="http://www.w3.org/2000/svg"
   xmlns:sodipodi="http://sodipodi.sourceforge.net/DTD/sodipodi-0.dtd"
   xmlns:inkscape="http://www.inkscape.org/namespaces/inkscape"
   version="1.1"
   id="Capa_1"
   x="0px"
   y="0px"
   viewBox="0 0 487.7 487.7"
   style="enable-background:new 0 0 487.7 487.7;"
   xml:space="preserve"
   width="512px"
   height="512px"
   inkscape:version="0.91 r13725"
   sodipodi:docname="photo-camera.svg"><metadata
     id="metadata47"><rdf:RDF><cc:Work
         rdf:about=""><dc:format>image/svg+xml</dc:format><dc:type
           rdf:resource="http://purl.org/dc/dcmitype/StillImage" /></cc:Work></rdf:RDF></metadata><defs
     id="defs45" /><sodipodi:namedview
     pagecolor="#ffffff"
     bordercolor="#666666"
     borderopacity="1"
     objecttolerance="10"
     gridtolerance="10"
     guidetolerance="10"
     inkscape:pageopacity="0"
     inkscape:pageshadow="2"
     inkscape:window-width="1366"
     inkscape:window-height="705"
     id="namedview43"
     showgrid="false"
     inkscape:zoom="0.4609375"
     inkscape:cx="-32.542373"
     inkscape:cy="256"
     inkscape:window-x="-8"
     inkscape:window-y="-8"
     inkscape:window-maximized="1"
     inkscape:current-layer="Capa_1" /><g
     id="g3"
     style="fill:#415f9d;fill-opacity:1"><g
       id="g5"
       style="fill:#415f9d;fill-opacity:1"><path
         d="M480.5,151.65c-2-1.1-48.8-25.4-126.8-40.1l-3-12.8c-7.8-33.5-37.3-57-71.8-57h-70.1c-34.4,0-63.9,23.4-71.8,57l-3,12.8    c-78,14.6-124.8,39-126.8,40.1c-4.4,2.3-7.2,6.9-7.2,11.9v159c0,63.7,51.8,115.6,115.6,115.6c7.5,0,13.5-6,13.5-13.5    s-6-13.5-13.5-13.5c-48.8,0-88.6-39.7-88.6-88.6v-150.5c16.2-7.4,59-24.9,120.5-35.5c5.3-0.9,9.6-5,10.8-10.2l5-21.5    c5-21.2,23.6-36.1,45.5-36.1h70.1c21.8,0,40.5,14.8,45.5,36.1l5,21.5c1.2,5.3,5.5,9.3,10.8,10.2c61.3,10.6,104.2,28.1,120.5,35.5    v150.5c0,48.8-39.7,88.6-88.6,88.6c-7.5,0-13.5,6-13.5,13.5s6,13.5,13.5,13.5c63.7,0,115.6-51.8,115.6-115.6v-159    C487.7,158.55,485,153.95,480.5,151.65z"
         fill="#FFFFFF"
         id="path7"
         style="fill:#415f9d;fill-opacity:1" /><path
         d="M44.2,124.05c1.4,0,2.8-0.2,4.2-0.7c14.2-4.7,29.1-8.9,44.3-12.5c7.3-1.7,11.7-9,10-16.2c-1.7-7.3-9-11.7-16.2-10    c-15.9,3.8-31.6,8.2-46.6,13.1c-7.1,2.3-10.9,10-8.6,17C33.3,120.45,38.6,124.05,44.2,124.05z"
         fill="#FFFFFF"
         id="path9"
         style="fill:#415f9d;fill-opacity:1" /><path
         d="M243.9,135.05c-85.7,0-155.4,69.7-155.4,155.4s69.7,155.5,155.4,155.5s155.4-69.7,155.4-155.4S329.6,135.05,243.9,135.05z     M243.9,418.95c-70.8,0-128.4-57.6-128.4-128.4s57.6-128.5,128.4-128.5s128.4,57.6,128.4,128.4S314.7,418.95,243.9,418.95z"
         fill="#FFFFFF"
         id="path11"
         style="fill:#415f9d;fill-opacity:1" /></g></g><g
     id="g13" /><g
     id="g15" /><g
     id="g17" /><g
     id="g19" /><g
     id="g21" /><g
     id="g23" /><g
     id="g25" /><g
     id="g27" /><g
     id="g29" /><g
     id="g31" /><g
     id="g33" /><g
     id="g35" /><g
     id="g37" /><g
     id="g39" /><g
     id="g41" /></svg>