<?xml version="1.0" encoding="UTF-8" standalone="no"?>
<svg
   xmlns:dc="http://purl.org/dc/elements/1.1/"
   xmlns:cc="http://creativecommons.org/ns#"
   xmlns:rdf="http://www.w3.org/1999/02/22-rdf-syntax-ns#"
   xmlns:svg="http://www.w3.org/2000/svg"
   xmlns="http://www.w3.org/2000/svg"
   xmlns:sodipodi="http://sodipodi.sourceforge.net/DTD/sodipodi-0.dtd"
   xmlns:inkscape="http://www.inkscape.org/namespaces/inkscape"
   version="1.1"
   x="0px"
   y="0px"
   viewBox="0 0 90 80"
   id="svg2"
   inkscape:version="0.91 r13725"
   sodipodi:docname="noun_939993_cc.svg"
   width="90"
   height="80">
  <metadata
     id="metadata16">
    <rdf:RDF>
      <cc:Work
         rdf:about="">
        <dc:format>image/svg+xml</dc:format>
        <dc:type
           rdf:resource="http://purl.org/dc/dcmitype/StillImage" />
        <dc:title></dc:title>
      </cc:Work>
    </rdf:RDF>
  </metadata>
  <defs
     id="defs14" />
  <sodipodi:namedview
     pagecolor="#ffffff"
     bordercolor="#666666"
     borderopacity="1"
     objecttolerance="10"
     gridtolerance="10"
     guidetolerance="10"
     inkscape:pageopacity="0"
     inkscape:pageshadow="2"
     inkscape:window-width="1366"
     inkscape:window-height="705"
     id="namedview12"
     showgrid="false"
     inkscape:zoom="1.888"
     inkscape:cx="-20.444915"
     inkscape:cy="62.5"
     inkscape:window-x="-8"
     inkscape:window-y="-8"
     inkscape:window-maximized="1"
     inkscape:current-layer="svg2" />
  <path
     inkscape:connector-curvature="0"
     id="path6"
     d="M 44.96875,-0.0311668 A 3.0003,3.0003 0 0 0 42,3.0313332 l 0,16.9999998 -35,0 c -3.8261079,0 -7,3.17389 -7,7 l 0,46 c 0,3.8261 3.1738921,7 7,7 l 76,0 c 3.826108,0 7,-3.1739 7,-7 l 0,-46 c 0,-3.82611 -3.173892,-7 -7,-7 l -28,0 a 3.0003,3.0003 0 1 0 0,6 l 28,0 c 0.60589,0 1,0.39411 1,1 l 0,46 c 0,0.6059 -0.39411,1 -1,1 l -76,0 c -0.605889,0 -1,-0.3941 -1,-1 l 0,-46 c 0,-0.60589 0.394111,-1 1,-1 l 38,0 a 3.0003,3.0003 0 0 0 3,-3 L 48,3.0313332 a 3.0003,3.0003 0 0 0 -3.03125,-3.0625 z M 10.6875,29.031333 a 3.0003,3.0003 0 0 0 -2.6875,3 l 0,36 a 3.0003,3.0003 0 0 0 3,3 l 68,0 a 3.0003,3.0003 0 0 0 3,-3 l 0,-36 a 3.0003,3.0003 0 0 0 -3,-3 l -68,0 a 3.0003,3.0003 0 0 0 -0.3125,0 z m 3.3125,6 6,0 0,6 -6,0 0,-6 z m 12,0 5,0 0,6 -5,0 0,-6 z m 11,0 5,0 0,6 -5,0 0,-6 z m 11,0 5,0 0,6 -5,0 0,-6 z m 11,0 5,0 0,6 -5,0 0,-6 z m 11,0 6,0 0,18 -17,0 0,-6 8,0 a 3.0003,3.0003 0 0 0 3,-3 l 0,-9 z m -56,12 6,0 0,6 -6,0 0,-6 z m 12,0 5,0 0,6 -5,0 0,-6 z m 11,0 5,0 0,6 -5,0 0,-6 z m 11,0 5,0 0,6 -5,0 0,-6 z m -34,12 6,0 0,6 -6,0 0,-6 z m 12,0 38,0 0,6 -38,0 0,-6 z m 44,0 6,0 0,6 -6,0 0,-6 z"
     style="color:#000000;font-style:normal;font-variant:normal;font-weight:normal;font-stretch:normal;font-size:medium;line-height:normal;font-family:Sans;-inkscape-font-specification:Sans;text-indent:0;text-align:start;text-decoration:none;text-decoration-line:none;letter-spacing:normal;word-spacing:normal;text-transform:none;direction:ltr;block-progression:tb;writing-mode:lr-tb;baseline-shift:baseline;text-anchor:start;display:inline;overflow:visible;visibility:visible;opacity:1;fill:#415f9d;fill-opacity:1;stroke:none;stroke-width:6;marker:none;enable-background:accumulate" />
</svg>
